<svg height="496pt" viewBox="0 -12 496 496" width="496pt" xmlns="http://www.w3.org/2000/svg"><path d="m8 336h144v128h-144zm0 0" fill="#d8d7da"/><path d="m152 336h192v128h-192zm0 0" fill="#acabb1"/><path d="m344 336h144v128h-144zm0 0" fill="#ffda44"/><path d="m344 8h144v104h-144zm0 0" fill="#acabb1"/><path d="m344 8h144v104h-144zm0 0" fill="#acabb1"/><path d="m8 8h144v104h-144zm0 0" fill="#acabb1"/><path d="m176 376h144v64h-144zm0 0" fill="#006df0"/><path d="m224 8h48v96h-48zm0 0" fill="#acabb1"/><path d="m344 168h-192l72-64h48zm0 0" fill="#e0e0e2"/><path d="m152 168h192v32h-192zm0 0" fill="#d80027"/><path d="m208 280h80v32c0 8.835938-7.164062 16-16 16h-48c-8.835938 0-16-7.164062-16-16zm0 0" fill="#3e3d42"/><path d="m440 196c0 15.464844-12.535156 28-28 28s-28-12.535156-28-28 12.535156-28 28-28 28 12.535156 28 28zm0 0" fill="#e0e0e2"/><g fill="#231f20"><path d="m488 328h-198.238281c3.992187-4.375 6.21875-10.078125 6.238281-16v-16h16c4.417969 0 8-3.582031 8-8s-3.582031-8-8-8h-16c0-4.417969-3.582031-8-8-8h-80c-4.417969 0-8 3.582031-8 8h-16c-4.417969 0-8 3.582031-8 8s3.582031 8 8 8h16v16c.019531 5.921875 2.246094 11.625 6.238281 16h-174.238281v-16h8c4.417969 0 8-3.582031 8-8s-3.582031-8-8-8h-8v-20c0-6.628906 5.371094-12 12-12s12 5.371094 12 12c0 4.417969 3.582031 8 8 8s8-3.582031 8-8c0-15.464844-12.535156-28-28-28s-28 12.535156-28 28v52h-8c-4.417969 0-8 3.582031-8 8v128c0 4.417969 3.582031 8 8 8h480c4.417969 0 8-3.582031 8-8v-128c0-4.417969-3.582031-8-8-8zm-272-40h64v24c0 4.417969-3.582031 8-8 8h-48c-4.417969 0-8-3.582031-8-8zm-200 56h128v32h-128zm0 48h128v64h-128zm144-48h176v112h-176zm192 112v-112h56v112zm128 0h-56v-112h56zm0 0"/><path d="m104 408h-48c-4.417969 0-8 3.582031-8 8s3.582031 8 8 8h48c4.417969 0 8-3.582031 8-8s-3.582031-8-8-8zm0 0"/><path d="m488 0h-144c-4.417969 0-8 3.582031-8 8v104c0 4.417969 3.582031 8 8 8h144c4.417969 0 8-3.582031 8-8v-104c0-4.417969-3.582031-8-8-8zm-8 104h-128v-88h128zm0 0"/><path d="m392 96h48c4.417969 0 8-3.582031 8-8s-3.582031-8-8-8h-48c-4.417969 0-8 3.582031-8 8s3.582031 8 8 8zm0 0"/><path d="m8 120h144c4.417969 0 8-3.582031 8-8v-104c0-4.417969-3.582031-8-8-8h-144c-4.417969 0-8 3.582031-8 8v104c0 4.417969 3.582031 8 8 8zm8-104h128v88h-128zm0 0"/><path d="m104 80h-48c-4.417969 0-8 3.582031-8 8s3.582031 8 8 8h48c4.417969 0 8-3.582031 8-8s-3.582031-8-8-8zm0 0"/><path d="m392 376c-4.417969 0-8 3.582031-8 8v32c0 4.417969 3.582031 8 8 8s8-3.582031 8-8v-32c0-4.417969-3.582031-8-8-8zm0 0"/><path d="m440 424c4.417969 0 8-3.582031 8-8v-32c0-4.417969-3.582031-8-8-8s-8 3.582031-8 8v32c0 4.417969 3.582031 8 8 8zm0 0"/><path d="m320 368h-144c-4.417969 0-8 3.582031-8 8v64c0 4.417969 3.582031 8 8 8h144c4.417969 0 8-3.582031 8-8v-64c0-4.417969-3.582031-8-8-8zm-8 64h-128v-48h128zm0 0"/><path d="m146.679688 162.015625c-.0625.0625-.105469.152344-.175782.214844-.070312.066406-.3125.394531-.480468.585937-.453126.515625-.839844 1.085938-1.144532 1.703125-.128906.261719-.242187.527344-.34375.800781-.242187.6875-.386718 1.40625-.429687 2.136719 0 .175781-.105469.328125-.105469.511719v32c0 4.417969 3.582031 8 8 8h192c4.417969 0 8-3.582031 8-8v-31.96875c0-.183594-.089844-.335938-.105469-.511719-.042969-.730469-.1875-1.449219-.429687-2.136719-.101563-.273437-.214844-.539062-.34375-.800781-.304688-.613281-.691406-1.1875-1.144532-1.703125-.167968-.191406-.296874-.40625-.480468-.582031s-.113282-.152344-.175782-.21875l-69.320312-61.640625v-92.40625c0-4.417969-3.582031-8-8-8h-48c-4.417969 0-8 3.582031-8 8v92.40625zm189.320312 29.984375h-176v-16h176zm-162.960938-32 54-48h41.921876l54 48zm58.960938-144h32v80h-32zm0 0"/><path d="m368 232c0 4.417969 3.582031 8 8 8h96c4.417969 0 8-3.582031 8-8s-3.582031-8-8-8h-37.648438c12.011719-9.511719 16.683594-25.585938 11.648438-40.054688s-18.679688-24.164062-34-24.164062-28.964844 9.695312-34 24.164062-.363281 30.542969 11.648438 40.054688h-13.648438c-4.417969 0-8 3.582031-8 8zm44-56c11.046875 0 20 8.953125 20 20s-8.953125 20-20 20-20-8.953125-20-20 8.953125-20 20-20zm0 0"/></g></svg>