<?xml version="1.0" encoding="iso-8859-1"?>
<!-- Generator: Adobe Illustrator 19.0.0, SVG Export Plug-In . SVG Version: 6.00 Build 0)  -->
<svg version="1.1" id="Layer_1" xmlns="http://www.w3.org/2000/svg" xmlns:xlink="http://www.w3.org/1999/xlink" x="0px" y="0px"
	 viewBox="0 0 512 512" style="enable-background:new 0 0 512 512;" xml:space="preserve">
<path style="fill:#314E55;" d="M503.018,112.281H377.263c-4.965,0-8.982,4.018-8.982,8.982v107.789v17.965v44.912H251.509H143.719
	H8.982c-4.965,0-8.982,4.018-8.982,8.982v107.789c0,4.965,4.018,8.982,8.982,8.982h134.737h107.789h125.754h125.754
	c4.965,0,8.982-4.018,8.982-8.982V247.018v-17.965V121.263C512,116.298,507.982,112.281,503.018,112.281z"/>
<g>
	<rect x="260.491" y="309.895" style="fill:#E4AD40;" width="107.789" height="35.93"/>
	<rect x="17.965" y="309.895" style="fill:#E4AD40;" width="116.772" height="89.825"/>
</g>
<polygon style="fill:#D8D8D8;" points="152.702,309.895 242.526,309.895 242.526,345.825 242.202,345.825 242.202,363.789 
	242.526,363.789 242.526,399.719 152.702,399.719 "/>
<rect x="260.491" y="363.789" style="fill:#E4AD40;" width="107.789" height="35.93"/>
<g>
	<polygon style="fill:#D8D8D8;" points="494.035,399.719 386.246,399.719 386.246,363.789 386.246,345.825 386.246,300.912 
		386.246,247.018 494.035,247.018 	"/>
	<rect x="386.246" y="130.246" style="fill:#D8D8D8;" width="107.789" height="98.807"/>
</g>
<g>
	<rect x="395.228" y="175.158" style="fill:#314E55;" width="17.965" height="44.912"/>
	<rect x="395.228" y="256" style="fill:#314E55;" width="17.965" height="44.912"/>
	<rect x="107.789" y="318.877" style="fill:#314E55;" width="17.965" height="44.912"/>
	<path style="fill:#314E55;" d="M224.561,318.877h-53.895c-4.965,0-8.982,4.018-8.982,8.982v44.912c0,4.965,4.018,8.982,8.982,8.982
		h53.895c4.965,0,8.982-4.018,8.982-8.982V327.86C233.544,322.895,229.526,318.877,224.561,318.877z"/>
</g>
<rect x="179.649" y="336.842" style="fill:#B48E7A;" width="35.93" height="26.947"/>
<path style="fill:#314E55;" d="M242.526,220.07h35.93v-17.965H249.62l-24.023-100.886c-0.965-4.044-4.579-6.903-8.737-6.903h-38.491
	c-4.158,0-7.772,2.86-8.737,6.903l-24.023,100.886h-28.837v17.965h35.93H242.526z"/>
<polygon style="fill:#D8D8D8;" points="185.465,112.281 209.763,112.281 231.158,202.105 164.07,202.105 "/>
<g>
</g>
<g>
</g>
<g>
</g>
<g>
</g>
<g>
</g>
<g>
</g>
<g>
</g>
<g>
</g>
<g>
</g>
<g>
</g>
<g>
</g>
<g>
</g>
<g>
</g>
<g>
</g>
<g>
</g>
</svg>
