<svg height="496pt" viewBox="0 0 496 496" width="496pt" xmlns="http://www.w3.org/2000/svg"><g fill="#f0bc5e"><path d="m232 304h64v16h-64zm0 0"/><path d="m160 88h16v32h-16zm0 0"/><path d="m192 88h16v32h-16zm0 0"/><path d="m224 88h16v32h-16zm0 0"/><path d="m256 88h16v32h-16zm0 0"/><path d="m288 88h16v32h-16zm0 0"/><path d="m320 88h16v32h-16zm0 0"/><path d="m360 400h80v16h-80zm0 0"/><path d="m360 432h80v16h-80zm0 0"/><path d="m56 400h80v16h-80zm0 0"/><path d="m56 432h80v16h-80zm0 0"/><path d="m192 344h112v120h-112zm0 0"/></g><path d="m0 0h16v16h-16zm0 0"/><path d="m480 0h16v16h-16zm0 0"/><path d="m160 37.574219-32 48v42.425781h240v-42.425781l-32-48v-21.574219h128v-16h-432v16h128zm163.71875 10.425781 21.335938 32h-194.109376l21.335938-32zm-179.71875 64v-16h208v16zm176-80h-144v-16h144zm0 0"/><path d="m480 240h-112v-16h-16v16h-16v-16h-16v16h-16v-16h-16v16h-80v-16h-16v16h-16v-16h-16v16h-16v-16h-16v16h-64v-72c0-8.824219 7.175781-16 16-16s16 7.175781 16 16v16h16v-16c0-17.648438-14.351562-32-32-32s-32 14.351562-32 32v72h-32c-8.824219 0-16 7.175781-16 16v16c0 8.824219 7.175781 16 16 16v192h144v16h176v-16h144v-192c8.824219 0 16-7.175781 16-16v-16c0-8.824219-7.175781-16-16-16zm-320 48v48h-128v-48zm160 0v48h-144v-48zm-192 176h-64v-80h64zm16 0v-96h-96v96h-16v-112h128v112zm32 16v-128h144v128zm256-16h-64v-80h64zm16 0v-96h-96v96h-16v-112h128v112zm16-128h-128v-48h128zm-448-64v-16h464l.007812 16zm0 0"/><path d="m392 304h16v16h-16zm0 0"/><path d="m88 304h16v16h-16zm0 0"/><path d="m256 304h16v16h-16zm0 0"/><path d="m224 304h16v16h-16zm0 0"/><path d="m288 304h16v16h-16zm0 0"/><path d="m224 368h48v16h-48zm0 0"/></svg>